<svg width="62" height="28" viewBox="0 0 62 28" fill="none" xmlns="http://www.w3.org/2000/svg">
<path d="M0.783691 23.4497V2.0083H5.90827V10.8672L15.9511 2.0083H21.9355L14.5753 8.73503L23.1048 23.4497H17.4644L11.2392 12.669H10.345L5.90827 16.5428V23.4497H0.783691Z" fill="#E6E6E6"/>
<path d="M27.7799 27.684H23.7559L34.1426 0.656952H38.0634L27.7799 27.684Z" fill="#E6E6E6"/>
<path d="M56.2636 16.6029H61.5945C61.2276 18.7851 60.1271 20.5368 58.2928 21.8582C56.4814 23.1795 54.1656 23.8401 51.3454 23.8401C47.6538 23.8401 44.7648 22.8291 42.6783 20.8071C40.6147 18.7651 39.5829 16.0724 39.5829 12.729C39.5829 9.38568 40.6262 6.703 42.7127 4.68098C44.7992 2.63893 47.6768 1.61791 51.3454 1.61791C54.028 1.61791 56.2636 2.22852 58.052 3.44975C59.8405 4.65095 60.941 6.25255 61.3538 8.25455H55.9884C55.4152 6.49279 53.8675 5.61191 51.3454 5.61191C49.2359 5.61191 47.6194 6.28258 46.4959 7.62392C45.3953 8.94524 44.8451 10.6469 44.8451 12.729C44.8451 14.8111 45.3953 16.5228 46.4959 17.8642C47.6194 19.1855 49.2359 19.8461 51.3454 19.8461C52.6523 19.8461 53.7299 19.5659 54.5783 19.0053C55.4496 18.4247 56.0114 17.6239 56.2636 16.6029Z" fill="#E6E6E6"/>
</svg>
